<?xml version="1.0" encoding="UTF-8" standalone="no"?>
<svg
   xmlns:dc="http://purl.org/dc/elements/1.1/"
   xmlns:cc="http://creativecommons.org/ns#"
   xmlns:rdf="http://www.w3.org/1999/02/22-rdf-syntax-ns#"
   xmlns:svg="http://www.w3.org/2000/svg"
   xmlns="http://www.w3.org/2000/svg"
   xml:space="preserve"
   style="enable-background:new 0 0 485.212 485.212;"
   viewBox="0 0 485.212 485.212"
   height="485.212px"
   width="485.212px"
   y="0px"
   x="0px"
   id="Capa_1"
   version="1.1"><metadata
     id="metadata41"><rdf:RDF><cc:Work
         rdf:about=""><dc:format>image/svg+xml</dc:format><dc:type
           rdf:resource="http://purl.org/dc/dcmitype/StillImage" /><dc:title></dc:title></cc:Work></rdf:RDF></metadata><defs
     id="defs39" /><g
     id="g3"><path
       id="path5"
       d="M348.748,106.141C348.748,47.532,301.212,0,242.604,0c-58.609,0-106.139,47.532-106.139,106.141   c0,53.424,39.61,97.196,90.976,104.598v274.473h30.327V210.739C309.119,203.337,348.748,159.565,348.748,106.141z" /></g><g
     id="g7" /><g
     id="g9" /><g
     id="g11" /><g
     id="g13" /><g
     id="g15" /><g
     id="g17" /><g
     id="g19" /><g
     id="g21" /><g
     id="g23" /><g
     id="g25" /><g
     id="g27" /><g
     id="g29" /><g
     id="g31" /><g
     id="g33" /><g
     id="g35" /><path
     id="path3369"
     d="m 227.76632,347.89845 0,-137.30896 -6.01295,-1.18637 c -34.58221,-6.82318 -63.87465,-30.95788 -77.17333,-63.58485 -11.41837,-28.01384 -10.24007,-59.625411 3.22372,-86.486382 3.75992,-7.501228 8.02053,-14.194158 12.65036,-19.87226 3.47942,-4.267226 11.96009,-12.687575 16.23653,-16.121048 11.06763,-8.885985 25.24697,-15.9837601 39.03108,-19.5378426 29.23271,-7.5373374 60.53906,-2.3846678 85.13702,14.0125906 42.67136,28.445157 59.05024,82.542152 39.17975,129.404842 -13.48573,31.80482 -42.65564,55.4916 -76.57986,62.18495 l -6.01295,1.18637 0,137.30896 0,137.30896 -14.83969,0 -14.83968,0 0,-137.30896 z"
     style="fill:#0044aa" /></svg>